<?xml version="1.0" encoding="UTF-8" standalone="no"?>
<!DOCTYPE svg PUBLIC "-//W3C//DTD SVG 1.1//EN" "http://www.w3.org/Graphics/SVG/1.1/DTD/svg11.dtd">
<svg width="100%" height="100%" viewBox="0 0 20 20" version="1.1" xmlns="http://www.w3.org/2000/svg" xmlns:xlink="http://www.w3.org/1999/xlink" xml:space="preserve" xmlns:serif="http://www.serif.com/" style="fill-rule:evenodd;clip-rule:evenodd;stroke-linejoin:round;stroke-miterlimit:2;">
    <g transform="matrix(1.19743,0,0,1.19743,0.420586,0.420586)">
        <path d="M3,0L0,3L13,3L13,16L16,13L16,0L3,0Z" style="fill:white;fill-opacity:0.5;fill-rule:nonzero;"/>
        <path d="M13,15L1,15L1,3L0,3L0,16L13,16L13,15Z" style="fill:white;fill-rule:nonzero;"/>
        <path d="M11.4,11.999L10.5,8.699L12.1,11.799L12.1,12.999L2,12.999L2,11.799L3.6,8.699L2.7,12.099L11.4,12.099L11.4,11.999Z" style="fill:white;fill-opacity:0.5;"/>
        <path d="M7.3,10.1L5.8,4.8L3.9,11L10.1,11L8.6,7L7.3,10.1Z" style="fill:white;fill-rule:nonzero;"/>
    </g>
</svg>
